<svg xmlns="http://www.w3.org/2000/svg" viewBox="0 0 1200 1200" width="1200" height="1200">
  <rect width="1200" height="1200" fill="#14261d"/>
  <text x="80" y="200" font-family="'Inria Sans', 'Segoe UI', sans-serif" font-size="64" font-weight="700" fill="#f4f1e8">Master layout</text>
  <rect x="80" y="228" width="120" height="6" fill="#c9a45c"/>
  <rect x="100" y="330" width="150" height="150" fill="#eadfba" rx="4"/>
  <rect x="268" y="330" width="150" height="150" fill="#eadfba" rx="4"/>
  <rect x="436" y="330" width="150" height="150" fill="#eadfba" rx="4"/>
  <rect x="604" y="330" width="150" height="150" fill="#eadfba" rx="4"/>
  <rect x="772" y="330" width="150" height="150" fill="#eadfba" rx="4"/>
  <rect x="940" y="330" width="150" height="150" fill="#eadfba" rx="4"/>
  <rect x="100" y="510" width="150" height="150" fill="#eadfba" rx="4"/>
  <rect x="268" y="510" width="150" height="150" fill="#eadfba" rx="4"/>
  <rect x="436" y="510" width="150" height="150" fill="#c9a45c" rx="4"/>
  <rect x="604" y="510" width="150" height="150" fill="#eadfba" rx="4"/>
  <rect x="772" y="510" width="150" height="150" fill="#eadfba" rx="4"/>
  <rect x="940" y="510" width="150" height="150" fill="#eadfba" rx="4"/>
  <rect x="100" y="690" width="150" height="150" fill="#eadfba" rx="4"/>
  <rect x="268" y="690" width="150" height="150" fill="#eadfba" rx="4"/>
  <rect x="436" y="690" width="150" height="150" fill="#eadfba" rx="4"/>
  <rect x="604" y="690" width="150" height="150" fill="#eadfba" rx="4"/>
  <rect x="772" y="690" width="150" height="150" fill="#eadfba" rx="4"/>
  <rect x="940" y="690" width="150" height="150" fill="#eadfba" rx="4"/>
  <rect x="100" y="870" width="150" height="150" fill="#eadfba" rx="4"/>
  <rect x="268" y="870" width="150" height="150" fill="#eadfba" rx="4"/>
  <rect x="436" y="870" width="150" height="150" fill="#eadfba" rx="4"/>
  <rect x="604" y="870" width="150" height="150" fill="#eadfba" rx="4"/>
  <rect x="772" y="870" width="150" height="150" fill="#eadfba" rx="4"/>
  <rect x="940" y="870" width="150" height="150" fill="#eadfba" rx="4"/>
  <text x="600" y="1060" font-family="'Inria Sans', 'Segoe UI', sans-serif" font-size="26" fill="#b9c4bb" text-anchor="middle">24 plots · 2 internal roads · park in the north-east corner</text>
  <text x="80" y="1130" font-family="'Inria Sans', 'Segoe UI', sans-serif" font-size="22" fill="#b9c4bb">Green Meadows · Sample brochure</text>
  <text x="1120" y="1130" font-family="'Inria Sans', 'Segoe UI', sans-serif" font-size="22" fill="#b9c4bb" text-anchor="end">4</text>
</svg>
